<svg xmlns="http://www.w3.org/2000/svg" class="svg-icon" style="width: 1em; height: 1em;vertical-align: middle;fill: currentColor;overflow: hidden;" viewBox="0 0 1024 1024" version="1.1"><path d="M810.666667 938.666667H213.333333a128 128 0 0 1-128-128V128a42.666667 42.666667 0 0 1 42.666667-42.666667h597.333333a42.666667 42.666667 0 0 1 42.666667 42.666667v512h170.666667v170.666667a128 128 0 0 1-128 128z m-42.666667-213.333334v85.333334a42.666667 42.666667 0 0 0 85.333333 0v-85.333334h-85.333333z m-85.333333 128V170.666667H170.666667v640a42.666667 42.666667 0 0 0 42.666666 42.666666h469.333334zM256 298.666667h341.333333v85.333333H256V298.666667z m0 170.666666h341.333333v85.333334H256v-85.333334z m0 170.666667h213.333333v85.333333H256v-85.333333z"/></svg>